<svg id="Layer_1" enable-background="new 0 0 512 512" height="512" viewBox="0 0 512 512" width="512" xmlns="http://www.w3.org/2000/svg"><g><path d="m272.812 54.807c-3.703-7.41-12.713-10.415-20.124-6.711l-103.188 51.574c-7.41 3.704-10.415 12.713-6.711 20.124 3.703 7.41 12.713 10.415 20.124 6.711l103.187-51.574c7.41-3.704 10.415-12.714 6.712-20.124z" fill="#0a141e"/><path d="m422.322 71.727-99.092-29.723c-7.936-2.381-16.297 2.123-18.677 10.058s2.123 16.297 10.058 18.677l99.091 29.723c7.936 2.381 16.297-2.123 18.677-10.058 2.381-7.935-2.122-16.297-10.057-18.677z" fill="#0a141e"/><path d="m175.667 498h-96.4c-8.284 0-15-6.716-15-15v-259.133c0-8.284 6.716-15 15-15h96.4c8.284 0 15 6.716 15 15v259.133c0 8.284-6.716 15-15 15z" fill="#ffe100"/><path d="m175.667 208.867h-48.2v289.133h48.2c8.284 0 15-6.716 15-15v-259.133c0-8.284-6.716-15-15-15z" fill="#ffaf00"/><path d="m512 498h-111.4c-8.284 0-15-6.716-15-15v-291.267c0-8.284 6.716-15 15-15h96.4c8.284 0 15 6.716 15 15z" fill="#ff004b"/><path d="m497 176.733h-48.2v321.267h63.2v-306.267c0-8.284-6.716-15-15-15z" fill="#b90041"/><path d="m336.333 498h-96.4c-8.284 0-15-6.716-15-15v-339.467c0-8.284 6.716-15 15-15h96.4c8.284 0 15 6.716 15 15v339.467c0 8.284-6.715 15-15 15z" fill="#00b4ff"/><path d="m336.333 128.533h-48.2v369.467h48.2c8.284 0 15-6.716 15-15v-339.467c0-8.284-6.715-15-15-15z" fill="#0078ff"/><g fill="#505a64"><circle cx="448.8" cy="95.333" r="47.133"/><circle cx="127.467" cy="127.467" r="47.133"/><circle cx="288.133" cy="47.133" r="47.133"/></g><path d="m497 512h-482c-8.284 0-15-6.716-15-15v-482c0-8.284 6.716-15 15-15s15 6.716 15 15v467h467c8.284 0 15 6.716 15 15s-6.716 15-15 15z" fill="#2d3741"/><path d="m512 497c0-8.284-6.716-15-15-15h-369.533v30h369.533c8.284 0 15-6.716 15-15z" fill="#0a141e"/><path d="m127.467 174.6v-94.267c25.989 0 47.133 21.144 47.133 47.133s-21.144 47.134-47.133 47.134z" fill="#2d3741"/><path d="m288.133 94.267v-94.267c25.989 0 47.133 21.144 47.133 47.133s-21.143 47.134-47.133 47.134z" fill="#2d3741"/><path d="m448.8 142.467v-94.267c25.989 0 47.133 21.144 47.133 47.133s-21.144 47.134-47.133 47.134z" fill="#2d3741"/></g></svg>