<?xml version="1.0"?>
<svg xmlns="http://www.w3.org/2000/svg" id="Filled" viewBox="0 0 512 512" width="512" height="512"><path d="M256,488a229.844,229.844,0,0,1-141.467-48.108A233.557,233.557,0,0,1,32.508,318.447a24,24,0,1,1,46.235-12.894,185.25,185.25,0,0,0,65.083,96.312A182.236,182.236,0,0,0,256,440c101.458,0,184-82.542,184-184S357.458,72,256,72a182.241,182.241,0,0,0-112.175,38.135,185.254,185.254,0,0,0-65.082,96.312,24,24,0,1,1-46.235-12.894A233.559,233.559,0,0,1,114.533,72.109,232.008,232.008,0,0,1,488,256,232,232,0,0,1,256,488Z" style="fill:#cfd2fc"/><path d="M56,224a24,24,0,0,1-23.964-22.669l-8-144a24,24,0,1,1,47.924-2.662l6.32,113.761,106.941-31.454a24,24,0,1,1,13.543,46.048l-135.995,40A23.947,23.947,0,0,1,56,224Z" style="fill:#cfd2fc"/><path d="M256,496a237.773,237.773,0,0,1-146.349-49.771A241.6,241.6,0,0,1,24.8,320.6,32,32,0,1,1,86.449,303.4a177.189,177.189,0,0,0,62.259,92.124A174.3,174.3,0,0,0,256,432c97.047,0,176-78.953,176-176S353.047,80,256,80a175.69,175.69,0,0,0-139.62,68.885L182.965,129.3a32,32,0,1,1,18.058,61.4l-135.995,40a32,32,0,0,1-40.979-28.925l-8-144a32,32,0,1,1,63.9-3.548l2.03,36.553A239.98,239.98,0,1,1,256,496ZM55.614,296a16,16,0,0,0-15.4,20.3,225.5,225.5,0,0,0,79.2,117.256A224.008,224.008,0,0,0,480,256,223.871,223.871,0,0,0,81.326,115.861,8,8,0,0,1,67.1,111.3L63.974,55.112a16,16,0,1,0-31.949,1.776l8,144A16,16,0,0,0,60.512,215.35l136-40a16,16,0,1,0-9.03-30.7L99.624,170.491a8,8,0,0,1-9.149-11.738A192.318,192.318,0,0,1,138.943,103.8,190.175,190.175,0,0,1,256,64c105.869,0,192,86.131,192,192S361.869,448,256,448a190.175,190.175,0,0,1-117.057-39.8A193.31,193.31,0,0,1,71.037,307.7,16.033,16.033,0,0,0,55.614,296Z"/></svg>
